{"title":"The Blacklist S03 1080p BluRay HEVC DD5.1 x265","uid":15798372,"size":16850166442,"categoryP":"video","categoryS":"hd___tv_shows","magnet":"?xt=urn:btih:ba09d2236dd1bedd62b371f45b6f5d1106544086&amp;dn=The+Blacklist+S03+1080p+BluRay+HEVC+DD5.1+x265&amp;tr=udp%3A%2F%2Ftracker.leechers-paradise.org%3A6969&amp;tr=udp%3A%2F%2Fzer0day.ch%3A1337&amp;tr=udp%3A%2F%2Fopen.demonii.com%3A1337&amp;tr=udp%3A%2F%2Ftracker.coppersurfer.tk%3A6969&amp;tr=udp%3A%2F%2Fexodus.desync.com%3A6969","seeders":1,"leechers":3,"uploader":"nayhtut","files":46,"time":1473477180,"description":"[Screenshots Gallery Link]\r\n\r\n[http://postimg.org/gallery/3dwp01m4c]\r\n\r\n\r\nSource:  The Blacklist S03 1080p BluRay x264-ROVERS  (Size: 75.64 GB)\r\n\r\n\r\nContains:  The Blacklist Season Three - Episode 01 to 23\r\n\r\nFormat                                   : Matroska\r\nFormat version                           : Version 4 / Version 2\r\nFile size                                : 15.69 GiB\r\nDuration                                 : Various\r\nOverall bit rate                         : 2 313 Kbps\r\nWriting application                      : Lavf57.25.100\r\nWriting library                          : Lavf57.25.100\r\n\r\nVideo\r\n\r\nID                                       : 1\r\nFormat                                   : V_MPEGH/ISO/HEVC\r\nCodec ID                                 : V_MPEGH/ISO/HEVC\r\nDuration                                 : 43mn 6s\r\nBit rate                                 : 1 883 Kbps\r\nWidth                                    : 1 920 pixels\r\nHeight                                   : 1 080 pixels\r\nDisplay aspect ratio                     : 16:9\r\nFrame rate                               : 25.000 fps\r\nBits/(Pixel*Frame)                       : 0.036\r\nStream size                              : 581 MiB (81%)\r\nWriting library                          : Lavc57.48.101 libx265\r\nLanguage                                 : English\r\nDefault                                  : Yes\r\nForced                                   : No\r\nDURATION                                 : 00:43:06.571000000\r\n\r\nAudio\r\n\r\nID                                       : 2\r\nFormat                                   : AC-3\r\nFormat/Info                              : Audio Coding 3\r\nMode extension                           : CM (complete main)\r\nFormat settings, Endianness              : Big\r\nCodec ID                                 : A_AC3\r\nDuration                                 : 43mn 6s\r\nBit rate mode                            : Constant\r\nBit rate                                 : 384 Kbps\r\nChannel(s)                               : 6 channels\r\nChannel positions                        : Front: L C R, Side: L R, LFE\r\nSampling rate                            : 48.0 KHz\r\nBit depth                                : 16 bits\r\nCompression mode                         : Lossy\r\nStream size                              : 118 MiB (17%)\r\nWriting library                          : Lavc57.24.102 ac3\r\nLanguage                                 : English\r\nDefault                                  : Yes\r\nForced                                   : No\r\nDURATION                                 : 00:43:06.687000000\r\n\r\nMenu\r\n\r\n00:00:00.000                             : :00:00:00.000\r\n00:03:51.440                             : :00:03:51.440\r\n00:08:02.357                             : :00:08:02.357\r\n00:18:17.930                             : :00:18:17.930\r\n00:24:18.165                             : :00:24:18.165\r\n00:29:19.591                             : :00:29:19.591\r\n00:34:51.339                             : :00:34:51.339\r\n00:42:29.005                             : :00:42:29.005","torrent":{"xt":"urn:btih:ba09d2236dd1bedd62b371f45b6f5d1106544086","amp;dn":"The+Blacklist+S03+1080p+BluRay+HEVC+DD5.1+x265","amp;tr":["udp%3A%2F%2Ftracker.leechers-paradise.org%3A6969","udp%3A%2F%2Fzer0day.ch%3A1337","udp%3A%2F%2Fopen.demonii.com%3A1337","udp%3A%2F%2Ftracker.coppersurfer.tk%3A6969","udp%3A%2F%2Fexodus.desync.com%3A6969"],"infoHash":"ba09d2236dd1bedd62b371f45b6f5d1106544086","infoHashBuffer":{"type":"Buffer","data":[186,9,210,35,109,209,190,221,98,179,113,244,91,111,93,17,6,84,64,134]},"announce":[],"urlList":[]}}